# Blender v2.83.0 OBJ File: ''
# www.blender.org
mtllib cuartoT.mtl
o Puerta_Cube.001
v -7.670000 0.000000 1.615000
v -7.330000 0.000000 1.615000
v -7.330000 0.000000 -1.615000
v -7.670000 0.000000 -1.615000
v -7.330000 7.626490 1.615000
v -7.670000 7.626490 1.615000
v -7.330000 7.626490 -1.615000
v -7.670000 7.626490 -1.615000
v -7.330000 6.901192 1.615000
v -7.330000 3.463245 1.615000
v -7.330000 2.700596 1.615000
v -7.330000 0.725298 1.615000
v -7.330000 6.901192 -1.615000
v -7.330000 3.463245 -1.615000
v -7.330000 2.700596 -1.615000
v -7.330000 0.725298 -1.615000
v -7.330000 6.901192 -1.162800
v -7.330000 3.463245 -1.162800
v -7.330000 2.700596 -1.162800
v -7.330000 0.725298 -1.162800
v -7.330000 6.901192 -0.323000
v -7.330000 3.463245 -0.323000
v -7.330000 2.700596 -0.323000
v -7.330000 0.725298 -0.323000
v -7.330000 6.901192 0.323000
v -7.330000 3.463245 0.323000
v -7.330000 2.700596 0.323000
v -7.330000 0.725298 0.323000
v -7.330000 6.901192 1.162800
v -7.330000 3.463245 1.162800
v -7.330000 2.700596 1.162800
v -7.330000 0.725298 1.162800
v -7.405000 2.700596 -1.162800
v -7.405000 0.725298 -1.162800
v -7.405000 2.700596 -0.323000
v -7.405000 0.725298 -0.323000
v -7.405000 2.700596 0.323000
v -7.405000 0.725298 0.323000
v -7.405000 2.700596 1.162800
v -7.405000 0.725298 1.162800
v -7.330000 2.557387 -1.049346
v -7.330000 0.868507 -1.049346
v -7.330000 2.557387 -0.420304
v -7.330000 0.868507 -0.420304
v -7.330000 2.557387 0.420304
v -7.330000 0.868507 0.420304
v -7.330000 2.557387 1.049346
v -7.330000 0.868507 1.049346
v -7.405000 6.901192 -1.162800
v -7.405000 3.463245 -1.162800
v -7.405000 6.901192 -0.323000
v -7.405000 3.463245 -0.323000
v -7.405000 6.901192 0.323000
v -7.405000 3.463245 0.323000
v -7.405000 6.901192 1.162800
v -7.405000 3.463245 1.162800
v -7.330000 6.733592 -1.049346
v -7.330000 3.630845 -1.049346
v -7.330000 6.733592 -0.420304
v -7.330000 3.630845 -0.420304
v -7.330000 6.733592 0.420304
v -7.330000 3.630845 0.420304
v -7.330000 6.733592 1.049346
v -7.330000 3.630845 1.049346
vt 0.375000 0.731250
vt 0.375000 0.232656
vt 0.375000 0.517344
vt 0.423125 0.688469
vt 0.423125 0.560125
vt 0.423125 0.602906
vt 0.471250 0.645688
vt 0.423125 0.645688
vt 0.519375 0.602906
vt 0.567500 0.645688
vt 0.519375 0.645688
vt 0.615625 0.232656
vt 0.375000 0.018750
vt 0.615625 0.018750
vt 0.423125 0.517344
vt 0.471250 0.560125
vt 0.567500 0.602906
vt 0.567500 0.560125
vt 0.615625 0.517344
vt 0.519375 0.517344
vt 0.519375 0.560125
vt 0.471250 0.517344
vt 0.615625 0.731250
vt 0.471250 0.731250
vt 0.423125 0.731250
vt 0.519375 0.688469
vt 0.567500 0.731250
vt 0.519375 0.731250
vt 0.471250 0.560125
vt 0.423125 0.560125
vt 0.471250 0.688469
vt 0.471250 0.645688
vt 0.471250 0.602906
vt 0.423125 0.602906
vt 0.471250 0.602906
vt 0.423125 0.645688
vt 0.471250 0.688469
vt 0.423125 0.688469
vt 0.423125 0.688469
vt 0.471250 0.688469
vt 0.423125 0.645688
vt 0.423125 0.560125
vt 0.471250 0.602906
vt 0.423125 0.602906
vt 0.471250 0.560125
vt 0.471250 0.645688
vt 0.519375 0.602906
vt 0.567500 0.602906
vt 0.567500 0.688469
vt 0.567500 0.645688
vt 0.519375 0.645688
vt 0.567500 0.688469
vt 0.519375 0.688469
vt 0.567500 0.560125
vt 0.519375 0.560125
vt 0.567500 0.688469
vt 0.567500 0.645688
vt 0.519375 0.645688
vt 0.519375 0.688469
vt 0.519375 0.560125
vt 0.567500 0.602906
vt 0.519375 0.602906
vt 0.567500 0.560125
vt 0.567500 0.517344
vn 0.0000 -1.0000 0.0000
vn 1.0000 0.0000 0.0000
vn -1.0000 0.0000 0.0000
vn -0.0000 0.0000 -1.0000
vn 0.0000 1.0000 0.0000
vn 0.0000 0.0000 1.0000
vn 0.8342 0.0000 0.5515
vn 0.8859 -0.4639 0.0000
vn 0.8859 0.4639 0.0000
vn 0.7920 0.0000 -0.6105
vn 0.7920 0.0000 0.6105
vn 0.8342 0.0000 -0.5515
vn 0.9128 0.4085 0.0000
vn 0.9128 -0.4085 0.0000
usemtl Puerta
s off
f 2/1/1 4/2/1 3/3/1
f 32/4/2 2/1/2 20/5/2
f 24/6/2 27/7/2 28/8/2
f 22/9/2 25/10/2 26/11/2
f 8/12/3 1/13/3 6/14/3
f 16/15/2 19/16/2 20/5/2
f 21/17/2 17/18/2 7/19/2
f 14/20/2 17/18/2 18/21/2
f 15/22/4 16/15/4 4/2/4
f 7/19/5 6/14/5 5/23/5
f 32/4/2 11/24/2 12/25/2
f 30/26/2 9/27/2 10/28/2
f 20/5/6 33/29/6 34/30/6
f 27/7/1 39/31/1 37/32/1
f 23/33/4 36/34/4 35/35/4
f 28/8/6 37/32/6 38/36/6
f 19/16/1 35/35/1 33/29/1
f 31/37/4 40/38/4 39/31/4
f 32/4/5 38/36/5 40/38/5
f 24/6/5 34/30/5 36/34/5
f 39/31/7 48/39/7 47/40/7
f 40/38/8 46/41/8 48/39/8
f 46/41/2 47/40/2 48/39/2
f 42/42/2 43/43/2 44/44/2
f 33/29/9 43/43/9 41/45/9
f 38/36/10 45/46/10 46/41/10
f 35/35/11 44/44/11 43/43/11
f 37/32/9 47/40/9 45/46/9
f 34/30/12 41/45/12 42/42/12
f 36/34/8 42/42/8 44/44/8
f 21/17/4 52/47/4 51/48/4
f 25/10/1 55/49/1 53/50/1
f 26/11/6 53/50/6 54/51/6
f 29/52/4 56/53/4 55/49/4
f 17/18/1 51/48/1 49/54/1
f 30/26/5 54/51/5 56/53/5
f 18/21/6 49/54/6 50/55/6
f 22/9/5 50/55/5 52/47/5
f 53/50/13 63/56/13 61/57/13
f 54/51/10 61/57/10 62/58/10
f 62/58/2 63/56/2 64/59/2
f 58/60/2 59/61/2 60/62/2
f 51/48/11 60/62/11 59/61/11
f 52/47/14 58/60/14 60/62/14
f 50/55/12 57/63/12 58/60/12
f 56/53/14 62/58/14 64/59/14
f 49/54/13 59/61/13 57/63/13
f 55/49/7 64/59/7 63/56/7
f 23/33/2 15/22/2 22/9/2
f 5/23/6 1/13/6 11/24/6
f 2/1/1 1/13/1 4/2/1
f 24/6/5 28/8/5 32/4/5
f 32/4/2 12/25/2 2/1/2
f 2/1/2 3/3/2 16/15/2
f 20/5/1 24/6/1 32/4/1
f 2/1/2 16/15/2 20/5/2
f 24/6/2 23/33/2 27/7/2
f 22/9/2 21/17/2 25/10/2
f 8/12/3 4/2/3 1/13/3
f 16/15/2 15/22/2 19/16/2
f 7/19/2 5/23/2 9/27/2
f 29/52/1 25/10/1 21/17/1
f 7/19/2 9/27/2 29/52/2
f 17/18/2 13/64/2 7/19/2
f 7/19/2 29/52/2 21/17/2
f 14/20/2 13/64/2 17/18/2
f 4/2/4 8/12/4 7/19/4
f 13/64/6 14/20/6 15/22/6
f 4/2/4 7/19/4 13/64/4
f 16/15/4 3/3/4 4/2/4
f 4/2/4 13/64/4 15/22/4
f 7/19/5 8/12/5 6/14/5
f 32/4/2 31/37/2 11/24/2
f 30/26/2 29/52/2 9/27/2
f 20/5/6 19/16/6 33/29/6
f 27/7/1 31/37/1 39/31/1
f 23/33/4 24/6/4 36/34/4
f 28/8/6 27/7/6 37/32/6
f 19/16/1 23/33/1 35/35/1
f 31/37/4 32/4/4 40/38/4
f 32/4/5 28/8/5 38/36/5
f 24/6/5 20/5/5 34/30/5
f 39/31/7 40/38/7 48/39/7
f 40/38/8 38/36/8 46/41/8
f 46/41/2 45/46/2 47/40/2
f 42/42/2 41/45/2 43/43/2
f 33/29/9 35/35/9 43/43/9
f 38/36/10 37/32/10 45/46/10
f 35/35/11 36/34/11 44/44/11
f 37/32/9 39/31/9 47/40/9
f 34/30/12 33/29/12 41/45/12
f 36/34/8 34/30/8 42/42/8
f 21/17/4 22/9/4 52/47/4
f 25/10/1 29/52/1 55/49/1
f 26/11/6 25/10/6 53/50/6
f 29/52/4 30/26/4 56/53/4
f 17/18/1 21/17/1 51/48/1
f 30/26/5 26/11/5 54/51/5
f 18/21/6 17/18/6 49/54/6
f 22/9/5 18/21/5 50/55/5
f 53/50/13 55/49/13 63/56/13
f 54/51/10 53/50/10 61/57/10
f 62/58/2 61/57/2 63/56/2
f 58/60/2 57/63/2 59/61/2
f 51/48/11 52/47/11 60/62/11
f 52/47/14 50/55/14 58/60/14
f 50/55/12 49/54/12 57/63/12
f 56/53/14 54/51/14 62/58/14
f 49/54/13 51/48/13 59/61/13
f 55/49/7 56/53/7 64/59/7
f 22/9/5 26/11/5 30/26/5
f 30/26/2 10/28/2 11/24/2
f 31/37/6 27/7/6 23/33/6
f 30/26/2 11/24/2 31/37/2
f 14/20/6 18/21/6 22/9/6
f 22/9/2 30/26/2 31/37/2
f 23/33/5 19/16/5 15/22/5
f 22/9/2 31/37/2 23/33/2
f 15/22/2 14/20/2 22/9/2
f 10/28/6 9/27/6 5/23/6
f 5/23/6 6/14/6 1/13/6
f 1/13/6 2/1/6 12/25/6
f 11/24/6 10/28/6 5/23/6
f 1/13/6 12/25/6 11/24/6
