# Blender v2.83.0 OBJ File: ''
# www.blender.org
mtllib cuartoT.mtl.mtl
o Cube_Cube.012
v -8.398134 -5.000000 10.000000
v -8.398134 5.000000 10.000000
v -8.398134 -5.000000 -10.000000
v -8.398134 5.000000 -10.000000
v 11.601867 -5.000000 10.000000
v 11.601867 5.000000 10.000000
v 11.601867 -5.000000 -10.000000
v 11.601867 5.000000 -10.000000
vt 0.375000 0.000000
vt 0.625000 0.250000
vt 0.375000 0.250000
vt 0.625000 0.500000
vt 0.375000 0.500000
vt 0.375000 0.750000
vt 0.625000 1.000000
vt 0.375000 1.000000
vt 0.125000 0.500000
vt 0.125000 0.750000
vt 0.875000 0.750000
vt 0.625000 0.750000
vt 0.625000 0.000000
vt 0.875000 0.500000
vn -1.0000 0.0000 0.0000
vn 0.0000 0.0000 -1.0000
vn 0.0000 0.0000 1.0000
vn 0.0000 -1.0000 0.0000
vn 0.0000 1.0000 0.0000
usemtl None
s off
f 1/1/1 4/2/1 3/3/1
f 3/3/2 8/4/2 7/5/2
f 5/6/3 2/7/3 1/8/3
f 3/9/4 5/6/4 1/10/4
f 8/4/5 2/11/5 6/12/5
f 1/1/1 2/13/1 4/2/1
f 3/3/2 4/2/2 8/4/2
f 5/6/3 6/12/3 2/7/3
f 3/9/4 7/5/4 5/6/4
f 8/4/5 4/14/5 2/11/5
