# Blender v2.83.0 OBJ File: ''
# www.blender.org
mtllib cuartoT.mtl
o Cube_Cube.001
v -27.500002 0.000000 10.000000
v -27.500002 10.000000 10.000000
v -27.500002 0.000000 -9.950000
v -27.500002 10.000000 -9.950000
v -7.500001 0.000000 10.000000
v -7.500001 10.000000 10.000000
v -7.500001 0.000000 -9.950000
v -7.500001 10.000000 -9.950000
v -27.500002 0.099999 -9.750500
v -27.500002 0.099999 9.800501
v -27.500002 9.900000 9.800501
v -27.500002 9.900000 -9.750500
v -7.500001 0.099999 -9.750500
v -7.500001 9.900000 -9.750500
v -7.500001 0.099999 9.800501
v -7.500001 9.900000 9.800501
v -27.500002 10.000000 8.772612
v -27.500002 10.000000 5.112488
v -27.500002 10.000000 -2.013841
v -27.500002 10.000000 -5.673962
v -25.799538 10.000000 -7.152555
v -24.466385 10.000000 -4.074175
v -24.805733 10.000000 -2.886453
v -26.647913 10.000000 -4.098414
v -26.793346 10.000000 -2.401669
v -25.387474 10.000000 0.700952
v -26.211601 10.000000 2.446175
v -26.841825 10.000000 1.428128
v -27.205414 10.000000 2.324979
v -26.284321 10.000000 3.076395
v -26.332802 10.000000 3.852050
v -26.575195 10.000000 6.566844
v -25.484425 10.000000 5.282164
v -25.678345 10.000000 4.530747
v -24.611813 10.000000 6.082058
v -25.944973 10.000000 6.881952
v -26.114647 10.000000 7.972717
v -27.011499 10.000000 7.221303
v -27.035736 10.000000 9.233157
v -27.500002 9.900000 8.776947
v -27.500002 9.900000 5.107399
v -27.500002 9.900000 -2.046540
v -27.500002 9.900000 -5.699253
v -27.013920 9.900000 9.265099
v -27.030750 9.900000 7.278830
v -26.104946 9.900000 7.985808
v -25.936619 9.900000 6.891675
v -24.606825 9.900000 6.083700
v -25.633625 9.900000 4.602413
v -25.498962 9.900000 5.292559
v -26.525764 9.900000 6.521353
v -26.340603 9.900000 3.878604
v -26.273275 9.900000 3.036963
v -27.148577 9.900000 2.346819
v -26.828754 9.900000 1.505180
v -26.205944 9.900000 2.447817
v -25.381134 9.900000 0.730872
v -26.795086 9.900000 -2.400025
v -26.660423 9.900000 -4.015973
v -24.808819 9.900000 -2.905010
v -24.438498 9.900000 -4.049638
v -25.785128 9.900000 -7.146873
v -27.454836 9.900000 9.800501
v -27.500002 0.099999 -7.908145
v -27.500002 0.099999 -6.304583
v -27.500002 0.099999 3.382510
v -26.384449 0.099999 -8.867655
v -25.884977 0.099999 -8.092160
v -24.728313 0.099999 -6.922349
v -26.279297 0.099999 -6.488600
v -25.727249 0.099999 -7.185229
v -25.056911 0.099999 -5.292500
v -25.871836 0.099999 -4.911326
v -26.923357 0.099999 -3.518067
v -26.450176 0.099999 -3.044885
v -26.450176 0.099999 -1.625338
v -26.765629 0.099999 -2.413974
v -27.357109 0.099999 -1.480754
v -26.555325 0.099999 -0.705261
v -26.345020 0.099999 1.056029
v -27.002220 0.099999 0.385687
v -27.094227 0.099999 1.240044
v -26.134716 0.099999 2.225841
v -26.410738 0.099999 3.067053
v -26.542183 0.099999 2.436143
v -27.107372 0.099999 1.962962
v -26.082140 0.099999 4.000275
v -25.451227 0.099999 6.142739
v -27.120508 0.099999 7.194255
v -25.753532 0.099999 7.365125
v -25.858686 0.099999 8.561224
v -26.686752 0.099999 8.561224
v -26.686752 0.099999 9.073839
v -25.254063 0.099999 9.192136
v -27.500002 0.000000 -7.869560
v -27.500002 0.000000 -6.287416
v -27.500002 0.000000 3.387997
v -27.500002 0.000000 9.800418
v -25.252768 0.000000 9.214540
v -26.675173 0.000000 9.077623
v -26.690384 0.000000 8.567991
v -25.868889 0.000000 8.583204
v -25.785213 0.000000 7.411809
v -27.085918 0.000000 7.191223
v -25.450531 0.000000 6.126318
v -26.066658 0.000000 3.996511
v -27.101131 0.000000 1.973194
v -26.515434 0.000000 2.482826
v -26.401342 0.000000 3.038097
v -26.119900 0.000000 2.231813
v -27.078312 0.000000 1.258187
v -26.994642 0.000000 0.406264
v -26.348091 0.000000 1.045206
v -26.553465 0.000000 -0.742311
v -27.336935 0.000000 -1.464924
v -26.781660 0.000000 -2.392912
v -26.446978 0.000000 -1.609447
v -26.439373 0.000000 -3.047068
v -26.926188 0.000000 -3.511062
v -25.922132 0.000000 -4.872617
v -25.070206 0.000000 -5.283365
v -25.747179 0.000000 -7.169765
v -26.233994 0.000000 -6.469970
v -24.720308 0.000000 -6.911146
v -25.876490 0.000000 -8.082542
v -26.355700 0.000000 -8.820368
vt 0.858895 0.655340
vt 0.848593 0.633470
vt 0.852229 0.681463
vt 0.136832 0.615383
vt 0.139399 0.637781
vt 0.138163 0.604516
vt 0.625000 0.750000
vt 0.375000 0.999435
vt 0.375000 0.750000
vt 0.625000 0.250000
vt 0.375000 0.500000
vt 0.375000 0.250000
vt 0.136808 0.615662
vt 0.126786 0.605746
vt 0.138123 0.603897
vt 0.375000 0.750000
vt 0.375000 0.500000
vt 0.625000 1.000000
vt 0.375000 1.000000
vt 0.625000 0.500000
vt 0.375000 0.250000
vt 0.625000 0.750000
vt 0.625000 0.500000
vt 0.875000 0.750000
vt 0.375000 1.000000
vt 0.875000 0.750000
vt 0.858824 0.655981
vt 0.859666 0.663514
vt 0.851670 0.683532
vt 0.125000 0.749861
vt 0.153074 0.742221
vt 0.125565 0.750000
vt 0.875000 0.500000
vt 0.853744 0.535056
vt 0.853564 0.533293
vt 0.875000 0.551804
vt 0.875000 0.553584
vt 0.836731 0.572897
vt 0.837080 0.573632
vt 0.841360 0.587533
vt 0.841322 0.588516
vt 0.864505 0.573328
vt 0.864349 0.573328
vt 0.866189 0.593991
vt 0.866167 0.594591
vt 0.875000 0.598511
vt 0.875000 0.599451
vt 0.848514 0.634026
vt 0.866609 0.643927
vt 0.866773 0.642583
vt 0.870607 0.654689
vt 0.871318 0.653822
vt 0.859804 0.663238
vt 0.860507 0.674276
vt 0.860410 0.672958
vt 0.875000 0.689989
vt 0.862822 0.708069
vt 0.875000 0.688753
vt 0.863440 0.706978
vt 0.849805 0.690879
vt 0.849987 0.692357
vt 0.838835 0.702473
vt 0.838898 0.700903
vt 0.855458 0.712805
vt 0.855562 0.710927
vt 0.857562 0.726795
vt 0.857683 0.724595
vt 0.869134 0.717755
vt 0.868894 0.715179
vt 0.875000 0.736912
vt 0.875000 0.734619
vt 0.868924 0.743154
vt 0.874435 0.750000
vt 0.869197 0.740390
vt 0.625000 0.998872
vt 0.625000 0.999435
vt 0.125000 0.500000
vt 0.138944 0.511289
vt 0.139304 0.514145
vt 0.125000 0.526071
vt 0.125000 0.523558
vt 0.145293 0.523412
vt 0.145188 0.521205
vt 0.159747 0.538078
vt 0.159646 0.536164
vt 0.140825 0.543608
vt 0.140259 0.541710
vt 0.146910 0.534839
vt 0.147159 0.532803
vt 0.125000 0.545897
vt 0.155371 0.558489
vt 0.125000 0.544063
vt 0.155539 0.557005
vt 0.145352 0.561879
vt 0.144724 0.563624
vt 0.132172 0.580700
vt 0.132208 0.579695
vt 0.138257 0.586512
vt 0.133979 0.594700
vt 0.138123 0.585745
vt 0.134180 0.593813
vt 0.127038 0.606329
vt 0.139437 0.638184
vt 0.131317 0.629777
vt 0.131222 0.629612
vt 0.130271 0.640453
vt 0.130072 0.640537
vt 0.142251 0.652654
vt 0.142066 0.653142
vt 0.138733 0.662758
vt 0.138616 0.663899
vt 0.137307 0.655802
vt 0.136973 0.655831
vt 0.129986 0.649419
vt 0.129908 0.649781
vt 0.125000 0.667143
vt 0.125000 0.667933
vt 0.142917 0.674769
vt 0.142723 0.675832
vt 0.150618 0.701458
vt 0.150610 0.703228
vt 0.130176 0.714802
vt 0.129744 0.716674
vt 0.146435 0.717567
vt 0.146831 0.718858
vt 0.145389 0.732246
vt 0.145516 0.734153
vt 0.135120 0.732055
vt 0.135166 0.734153
vt 0.135310 0.738441
vt 0.135166 0.740708
vt 0.153090 0.740157
vt 0.125000 0.750000
vt 0.875000 0.500000
vt 0.125000 0.500000
vt 0.625000 0.250000
vt 0.873872 0.750000
vn 0.0000 -1.0000 0.0000
vn 0.0000 1.0000 0.0000
vn 0.0000 0.0000 1.0000
vn 0.0000 0.0000 -1.0000
vn -1.0000 0.0000 0.0000
vn 1.0000 0.0000 0.0000
vn 0.2615 -0.0008 0.9652
vn 0.8318 0.0888 -0.5479
vn 0.6391 0.1351 0.7571
vn 0.4630 0.2173 -0.8593
vn 0.9006 0.3227 0.2914
vn -0.5093 -0.1418 0.8488
vn 0.9950 -0.0561 0.0829
vn 0.4482 0.0069 0.8939
vn 0.7799 0.1946 -0.5949
vn 0.8861 0.1835 0.4257
vn -0.8337 -0.0381 0.5509
vn 0.8692 0.3681 0.3303
vn 0.6093 0.1775 -0.7728
vn 0.9937 0.0784 0.0795
vn 0.7217 0.1245 0.6809
vn 0.7039 0.5515 -0.4476
vn -0.7666 0.0449 -0.6406
vn 0.8212 -0.0407 -0.5692
vn 0.5188 0.0399 0.8539
vn 0.9837 0.0969 0.1513
vn -0.6063 0.0451 0.7940
vn 0.9542 -0.0118 0.2989
vn 0.7083 -0.0306 -0.7053
vn 0.5949 -0.7186 0.3602
vn 0.6963 -0.1333 -0.7053
vn 0.5606 0.4802 0.6747
vn -0.1215 -0.3573 -0.9260
vn 0.7117 -0.0072 -0.7025
vn 0.2775 0.1289 0.9520
vn -0.7405 -0.4315 -0.5152
vn 0.4491 0.0484 0.8922
vn 0.3793 -0.1340 -0.9155
vn 0.4307 0.1291 0.8932
vn 0.7928 -0.1724 0.5846
vn 0.6882 -0.0701 -0.7221
vn -0.9191 0.0330 0.3926
vn 0.9942 0.1073 0.0053
vn 0.8577 -0.0294 0.5132
vn 0.6778 0.0204 -0.7349
vn 0.9916 0.0606 -0.1139
vn -0.7018 -0.0553 0.7102
vn 0.9907 0.0951 0.0973
vn 0.7126 -0.0139 -0.7014
vn 0.9323 0.1576 0.3254
vn -0.9687 -0.1486 0.1990
vn -0.6464 0.1739 0.7429
vn 0.9588 0.0875 0.2703
vn 0.3903 -0.0505 -0.9193
vn 0.9487 0.1572 -0.2744
vn 0.5409 -0.1326 0.8306
vn 0.1666 0.0874 -0.9822
vn 0.9598 -0.2721 0.0686
vn -0.0181 0.2164 0.9761
vn 0.9988 -0.0383 -0.0298
vn 0.0958 -0.0266 -0.9950
vn 0.2464 0.2149 0.9450
vn 0.5934 -0.7196 -0.3607
vn 0.6445 -0.1875 0.7412
vn 0.4647 -0.0866 -0.8812
vn 0.9584 -0.0804 0.2738
vn -0.4381 0.6038 0.6659
vn 0.9962 -0.0159 0.0854
vn 0.4625 -0.2755 0.8427
vn 0.7822 -0.1326 -0.6087
vn 0.9027 0.0581 0.4263
vn -0.8156 0.2824 0.5049
vn 0.7916 0.5200 0.3209
vn 0.5918 0.3514 -0.7254
vn 0.9962 -0.0612 0.0623
vn 0.7333 -0.0346 0.6790
vn 0.8231 0.0289 -0.5671
vn -0.7597 -0.0821 -0.6450
vn 0.8236 0.0318 -0.5662
vn 0.5104 0.1254 0.8507
vn 0.9815 0.1152 0.1527
vn -0.5592 0.4916 0.6675
vn 0.9537 0.0130 0.3003
vn 0.7024 -0.0730 -0.7081
vn 0.6930 0.3521 0.6291
vn 0.3342 0.8426 -0.4223
vn 0.6259 0.2808 0.7276
vn -0.1126 -0.1046 -0.9881
vn 0.7109 -0.0219 -0.7029
vn 0.2579 0.2886 0.9221
vn -0.7823 0.0600 -0.6200
vn 0.4397 0.1520 0.8852
vn 0.3772 -0.1567 -0.9128
vn 0.4235 0.0264 0.9055
vn 0.7980 0.0196 0.6023
vn 0.7041 0.0914 -0.7041
vn -0.9054 0.2214 0.3622
vn 0.9995 0.0319 0.0000
vn 0.8184 0.2472 0.5187
vn 0.6696 0.2689 -0.6923
vn 0.9928 -0.0177 -0.1185
vn -0.7112 0.0896 0.6973
vn 0.9789 0.1749 0.1054
vn 0.7151 0.0644 -0.6960
vn 0.9502 -0.0010 0.3118
vn -0.9657 -0.1644 0.2012
vn -0.6415 0.0384 0.7662
vn 0.9637 0.0146 0.2666
vn 0.3976 0.0959 -0.9125
vn 0.9579 0.0530 -0.2821
vn 0.5264 0.1567 0.8357
vn 0.1108 -0.4490 -0.8866
vn 0.9928 -0.0821 0.0873
vn 0.0000 0.0675 0.9977
vn 0.9934 0.1150 0.0000
vn 0.0803 -0.2169 -0.9729
usemtl Pared_Alta.001
s off
f 27/1/1 26/2/1 34/3/1
f 114/4/2 113/5/2 117/6/2
f 16/7/3 10/8/3 15/9/3
f 12/10/4 13/11/4 9/12/4
f 79/13/1 78/14/1 76/15/1
f 5/16/5 13/11/5 7/17/5
f 2/18/4 5/16/4 1/19/4
f 8/20/3 3/21/3 7/17/3
f 6/22/5 15/9/5 5/16/5
f 7/17/5 14/23/5 8/20/5
f 8/20/5 16/7/5 6/22/5
f 3/21/6 12/10/6 9/12/6
f 2/24/6 10/25/6 11/26/6
f 56/27/2 53/28/2 49/29/2
f 98/30/7 94/31/7 10/32/7
f 12/33/8 21/34/8 62/35/8
f 21/34/9 43/36/9 62/35/9
f 20/37/10 61/38/10 43/36/10
f 22/39/11 60/40/11 61/38/11
f 23/41/12 59/42/12 60/40/12
f 24/43/13 58/44/13 59/42/13
f 25/45/14 42/46/14 58/44/14
f 19/47/15 57/48/15 42/46/15
f 26/2/16 56/27/16 57/48/16
f 27/1/17 55/49/17 56/27/17
f 28/50/18 54/51/18 55/49/18
f 29/52/19 53/28/19 54/51/19
f 30/53/20 52/54/20 53/28/20
f 31/55/21 41/56/21 52/54/21
f 51/57/22 18/58/22 32/59/22
f 51/57/23 33/60/23 50/61/23
f 34/3/24 48/62/24 49/29/24
f 35/63/25 47/64/25 48/62/25
f 36/65/26 46/66/26 47/64/26
f 37/67/27 45/68/27 46/66/27
f 38/69/28 40/70/28 45/68/28
f 17/71/29 44/72/29 40/70/29
f 11/73/30 39/74/30 2/24/30
f 10/8/3 63/75/3 11/76/3
f 3/77/31 67/78/31 126/79/31
f 67/78/32 95/80/32 126/79/32
f 64/81/33 125/82/33 95/80/33
f 68/83/34 124/84/34 125/82/34
f 69/85/35 123/86/35 124/84/35
f 70/87/36 122/88/36 123/86/36
f 71/89/37 96/90/37 122/88/37
f 121/91/38 65/92/38 72/93/38
f 121/91/39 73/94/39 120/95/39
f 73/94/40 119/96/40 120/95/40
f 74/97/41 118/98/41 119/96/41
f 76/15/42 116/99/42 117/6/42
f 75/100/43 117/6/43 118/98/43
f 77/101/44 115/102/44 116/99/44
f 78/14/45 114/4/45 115/102/45
f 79/13/46 113/5/46 114/4/46
f 80/103/47 112/104/47 113/5/47
f 81/105/48 111/106/48 112/104/48
f 82/107/49 110/108/49 111/106/49
f 83/109/50 109/110/50 110/108/50
f 84/111/51 108/112/51 109/110/51
f 85/113/52 107/114/52 108/112/52
f 86/115/53 97/116/53 107/114/53
f 66/117/54 106/118/54 97/116/54
f 87/119/55 105/120/55 106/118/55
f 88/121/56 104/122/56 105/120/56
f 89/123/57 103/124/57 104/122/57
f 90/125/58 102/126/58 103/124/58
f 91/127/59 101/128/59 102/126/59
f 92/129/60 100/130/60 101/128/60
f 93/131/61 99/132/61 100/130/61
f 1/133/6 98/30/6 10/25/6
f 8/20/1 6/22/1 22/39/1
f 6/22/1 2/24/1 37/67/1
f 37/67/1 2/24/1 39/74/1
f 39/74/1 17/71/1 38/69/1
f 35/63/1 6/22/1 37/67/1
f 21/34/1 4/134/1 8/20/1
f 22/39/1 20/37/1 21/34/1
f 25/45/1 24/43/1 23/41/1
f 22/39/1 21/34/1 8/20/1
f 19/47/1 25/45/1 26/2/1
f 25/45/1 23/41/1 26/2/1
f 23/41/1 22/39/1 35/63/1
f 35/63/1 22/39/1 6/22/1
f 39/74/1 38/69/1 37/67/1
f 37/67/1 36/65/1 35/63/1
f 34/3/1 33/60/1 32/59/1
f 34/3/1 32/59/1 31/55/1
f 32/59/1 18/58/1 31/55/1
f 35/63/1 34/3/1 26/2/1
f 23/41/1 35/63/1 26/2/1
f 34/3/1 31/55/1 30/53/1
f 30/53/1 29/52/1 27/1/1
f 29/52/1 28/50/1 27/1/1
f 30/53/1 27/1/1 34/3/1
f 98/30/2 1/133/2 99/132/2
f 1/133/2 5/16/2 99/132/2
f 7/17/2 3/77/2 126/79/2
f 126/79/2 95/80/2 125/82/2
f 126/79/2 125/82/2 124/84/2
f 5/16/2 7/17/2 124/84/2
f 7/17/2 126/79/2 124/84/2
f 101/128/2 100/130/2 102/126/2
f 100/130/2 99/132/2 102/126/2
f 123/86/2 122/88/2 96/90/2
f 5/16/2 124/84/2 121/91/2
f 124/84/2 123/86/2 121/91/2
f 102/126/2 99/132/2 103/124/2
f 99/132/2 5/16/2 105/120/2
f 103/124/2 99/132/2 105/120/2
f 105/120/2 104/122/2 103/124/2
f 123/86/2 96/90/2 121/91/2
f 121/91/2 120/95/2 118/98/2
f 120/95/2 119/96/2 118/98/2
f 107/114/2 97/116/2 108/112/2
f 97/116/2 106/118/2 109/110/2
f 106/118/2 105/120/2 110/108/2
f 105/120/2 5/16/2 121/91/2
f 110/108/2 105/120/2 121/91/2
f 121/91/2 118/98/2 117/6/2
f 117/6/2 116/99/2 115/102/2
f 121/91/2 117/6/2 113/5/2
f 110/108/2 121/91/2 113/5/2
f 109/110/2 108/112/2 97/116/2
f 112/104/2 111/106/2 113/5/2
f 111/106/2 110/108/2 113/5/2
f 110/108/2 109/110/2 106/118/2
f 117/6/2 115/102/2 114/4/2
f 16/7/3 63/75/3 10/8/3
f 12/10/4 14/23/4 13/11/4
f 15/9/1 10/32/1 94/31/1
f 94/31/1 93/131/1 91/127/1
f 93/131/1 92/129/1 91/127/1
f 13/11/1 15/9/1 69/85/1
f 15/9/1 94/31/1 88/121/1
f 67/78/1 9/135/1 13/11/1
f 68/83/1 64/81/1 67/78/1
f 69/85/1 68/83/1 67/78/1
f 15/9/1 88/121/1 72/93/1
f 94/31/1 91/127/1 90/125/1
f 90/125/1 89/123/1 88/121/1
f 94/31/1 90/125/1 88/121/1
f 69/85/1 67/78/1 13/11/1
f 65/92/1 71/89/1 70/87/1
f 70/87/1 69/85/1 72/93/1
f 72/93/1 69/85/1 15/9/1
f 87/119/1 66/117/1 84/111/1
f 66/117/1 86/115/1 85/113/1
f 84/111/1 66/117/1 85/113/1
f 88/121/1 87/119/1 83/109/1
f 72/93/1 88/121/1 83/109/1
f 72/93/1 65/92/1 70/87/1
f 83/109/1 82/107/1 80/103/1
f 82/107/1 81/105/1 80/103/1
f 87/119/1 84/111/1 83/109/1
f 74/97/1 73/94/1 75/100/1
f 73/94/1 72/93/1 75/100/1
f 83/109/1 80/103/1 72/93/1
f 80/103/1 79/13/1 76/15/1
f 72/93/1 80/103/1 76/15/1
f 76/15/1 75/100/1 72/93/1
f 78/14/1 77/101/1 76/15/1
f 5/16/5 15/9/5 13/11/5
f 2/18/4 6/22/4 5/16/4
f 8/20/3 4/136/3 3/21/3
f 6/22/5 16/7/5 15/9/5
f 7/17/5 13/11/5 14/23/5
f 8/20/5 14/23/5 16/7/5
f 3/21/6 4/134/6 12/10/6
f 2/24/6 1/133/6 10/25/6
f 45/68/2 40/70/2 44/72/2
f 44/72/2 11/73/2 63/137/2
f 63/137/2 16/7/2 44/72/2
f 16/7/2 14/23/2 61/38/2
f 44/72/2 16/7/2 46/66/2
f 14/23/2 12/33/2 62/35/2
f 62/35/2 43/36/2 61/38/2
f 60/40/2 59/42/2 58/44/2
f 14/23/2 62/35/2 61/38/2
f 60/40/2 58/44/2 57/48/2
f 58/44/2 42/46/2 57/48/2
f 61/38/2 60/40/2 48/62/2
f 48/62/2 16/7/2 61/38/2
f 46/66/2 45/68/2 44/72/2
f 48/62/2 47/64/2 46/66/2
f 51/57/2 50/61/2 49/29/2
f 48/62/2 46/66/2 16/7/2
f 41/56/2 51/57/2 52/54/2
f 51/57/2 49/29/2 52/54/2
f 49/29/2 48/62/2 57/48/2
f 48/62/2 60/40/2 57/48/2
f 53/28/2 52/54/2 49/29/2
f 55/49/2 54/51/2 56/27/2
f 54/51/2 53/28/2 56/27/2
f 57/48/2 56/27/2 49/29/2
f 98/30/62 99/132/62 94/31/62
f 12/33/63 4/134/63 21/34/63
f 21/34/64 20/37/64 43/36/64
f 20/37/65 22/39/65 61/38/65
f 22/39/66 23/41/66 60/40/66
f 23/41/67 24/43/67 59/42/67
f 24/43/68 25/45/68 58/44/68
f 25/45/69 19/47/69 42/46/69
f 19/47/70 26/2/70 57/48/70
f 26/2/71 27/1/71 56/27/71
f 27/1/72 28/50/72 55/49/72
f 28/50/73 29/52/73 54/51/73
f 29/52/74 30/53/74 53/28/74
f 30/53/75 31/55/75 52/54/75
f 31/55/76 18/58/76 41/56/76
f 51/57/77 41/56/77 18/58/77
f 51/57/78 32/59/78 33/60/78
f 34/3/79 35/63/79 48/62/79
f 35/63/80 36/65/80 47/64/80
f 36/65/81 37/67/81 46/66/81
f 37/67/82 38/69/82 45/68/82
f 38/69/83 17/71/83 40/70/83
f 17/71/84 39/74/84 44/72/84
f 11/73/85 44/72/85 39/74/85
f 3/77/86 9/135/86 67/78/86
f 67/78/87 64/81/87 95/80/87
f 64/81/88 68/83/88 125/82/88
f 68/83/89 69/85/89 124/84/89
f 69/85/90 70/87/90 123/86/90
f 70/87/91 71/89/91 122/88/91
f 71/89/92 65/92/92 96/90/92
f 121/91/93 96/90/93 65/92/93
f 121/91/94 72/93/94 73/94/94
f 73/94/95 74/97/95 119/96/95
f 74/97/96 75/100/96 118/98/96
f 76/15/97 77/101/97 116/99/97
f 75/100/98 76/15/98 117/6/98
f 77/101/99 78/14/99 115/102/99
f 78/14/100 79/13/100 114/4/100
f 79/13/101 80/103/101 113/5/101
f 80/103/102 81/105/102 112/104/102
f 81/105/103 82/107/103 111/106/103
f 82/107/104 83/109/104 110/108/104
f 83/109/105 84/111/105 109/110/105
f 84/111/106 85/113/106 108/112/106
f 85/113/107 86/115/107 107/114/107
f 86/115/108 66/117/108 97/116/108
f 66/117/109 87/119/109 106/118/109
f 87/119/110 88/121/110 105/120/110
f 88/121/111 89/123/111 104/122/111
f 89/123/112 90/125/112 103/124/112
f 90/125/113 91/127/113 102/126/113
f 91/127/114 92/129/114 101/128/114
f 92/129/115 93/131/115 100/130/115
f 93/131/116 94/31/116 99/132/116
