# Blender v2.83.0 OBJ File: ''
# www.blender.org
mtllib Cuarto Dentro.mtl
o Cuarto_Dentro_Cube.001
v 10.244663 -4.907140 9.780595
v 10.244658 -4.907140 -9.770406
v 10.244658 4.892860 -9.770406
v 10.244663 4.892860 9.780595
v -9.755337 -4.907140 9.780602
v -9.755337 4.892860 9.780602
v -9.755342 -4.907140 -9.770399
v -9.755342 4.892860 -9.770399
v 10.244658 4.892860 -8.746853
v 10.244658 4.892860 -5.077303
v 10.244661 4.892860 2.076635
v 10.244662 4.892860 5.729348
v 9.758576 4.892860 -9.235003
v 9.775408 4.892860 -7.248734
v 8.849604 4.892860 -7.955712
v 8.681276 4.892860 -6.861578
v 7.351482 4.892860 -6.053603
v 8.378283 4.892860 -4.572317
v 8.243621 4.892860 -5.262463
v 9.270420 4.892860 -6.491257
v 9.085261 4.892860 -3.848508
v 9.017934 4.892860 -3.006868
v 9.893235 4.892860 -2.316724
v 9.573413 4.892860 -1.475084
v 8.950603 4.892860 -2.417722
v 8.125793 4.892860 -0.700776
v 9.539746 4.892860 2.430121
v 9.405085 4.892860 4.046068
v 7.553478 4.892860 2.935106
v 7.183157 4.892860 4.079735
v 8.529789 4.892860 7.176970
v 10.199492 4.892860 -9.770405
v 10.244663 -4.907140 7.938241
v 10.244662 -4.907140 6.334679
v 10.244659 -4.907140 -3.352415
v 9.129112 -4.907140 8.897751
v 8.629640 -4.907140 8.122256
v 7.472975 -4.907140 6.952446
v 9.023959 -4.907140 6.518696
v 8.471910 -4.907140 7.215325
v 7.801573 -4.907140 5.322597
v 8.616497 -4.907140 4.941422
v 9.668017 -4.907140 3.548162
v 9.194835 -4.907140 3.074980
v 9.194835 -4.907140 1.655434
v 9.510289 -4.907140 2.444070
v 10.101768 -4.907140 1.510849
v 9.299984 -4.907140 0.735357
v 9.089680 -4.907140 -1.025933
v 9.746878 -4.907140 -0.355592
v 9.838886 -4.907140 -1.209948
v 8.879375 -4.907140 -2.195745
v 9.155396 -4.907140 -3.036958
v 9.286841 -4.907140 -2.406048
v 9.852029 -4.907140 -1.932866
v 8.826798 -4.907140 -3.970179
v 8.195885 -4.907140 -6.112643
v 9.865166 -4.907140 -7.164160
v 8.498189 -4.907140 -7.335029
v 8.603342 -4.907140 -8.531129
v 9.431409 -4.907140 -8.531129
v 9.431408 -4.907140 -9.043743
v 7.998719 -4.907140 -9.162040
vt 0.625000 0.750000
vt 0.375000 0.999435
vt 0.375000 0.750000
vt 0.625000 0.250000
vt 0.375000 0.500000
vt 0.375000 0.250000
vt 0.136808 0.615662
vt 0.126786 0.605746
vt 0.138123 0.603897
vt 0.858824 0.655981
vt 0.859666 0.663514
vt 0.851670 0.683532
vt 0.625000 0.998872
vt 0.625000 0.999435
vt 0.625000 0.500000
vt 0.125565 0.750000
vt 0.153074 0.742221
vt 0.135166 0.740708
vt 0.145516 0.734153
vt 0.135166 0.734153
vt 0.159646 0.536164
vt 0.150610 0.703228
vt 0.138944 0.511289
vt 0.125000 0.500000
vt 0.145188 0.521205
vt 0.125000 0.523558
vt 0.155539 0.557005
vt 0.146831 0.718858
vt 0.129744 0.716674
vt 0.125000 0.544063
vt 0.147159 0.532803
vt 0.140259 0.541710
vt 0.142723 0.675832
vt 0.125000 0.667933
vt 0.138616 0.663899
vt 0.129908 0.649781
vt 0.136973 0.655831
vt 0.142066 0.653142
vt 0.130072 0.640537
vt 0.139437 0.638184
vt 0.131222 0.629612
vt 0.132208 0.579695
vt 0.145352 0.561879
vt 0.138123 0.585745
vt 0.134180 0.593813
vt 0.869134 0.717755
vt 0.875000 0.736912
vt 0.868924 0.743154
vt 0.874435 0.750000
vt 0.873872 0.750000
vt 0.836731 0.572897
vt 0.857562 0.726795
vt 0.875000 0.500000
vt 0.853564 0.533293
vt 0.875000 0.551804
vt 0.841360 0.587533
vt 0.864505 0.573328
vt 0.866189 0.593991
vt 0.848514 0.634026
vt 0.875000 0.598511
vt 0.838835 0.702473
vt 0.855458 0.712805
vt 0.862822 0.708069
vt 0.849987 0.692357
vt 0.875000 0.689989
vt 0.860507 0.674276
vt 0.866609 0.643927
vt 0.870607 0.654689
vn -0.0000 0.0000 -1.0000
vn 0.0000 0.0000 1.0000
vn 0.0000 -1.0000 0.0000
vn 0.0000 1.0000 0.0000
usemtl Pared_Alta.002
s off
f 8/1/1 2/2/1 7/3/1
f 4/4/2 5/5/2 1/6/2
f 48/7/3 47/8/3 45/9/3
f 25/10/4 22/11/4 18/12/4
f 2/2/1 32/13/1 3/14/1
f 8/1/1 32/13/1 2/2/1
f 4/4/2 6/15/2 5/5/2
f 7/3/3 2/16/3 63/17/3
f 63/17/3 62/18/3 60/19/3
f 62/18/3 61/20/3 60/19/3
f 5/5/3 7/3/3 38/21/3
f 7/3/3 63/17/3 57/22/3
f 36/23/3 1/24/3 5/5/3
f 37/25/3 33/26/3 36/23/3
f 38/21/3 37/25/3 36/23/3
f 7/3/3 57/22/3 41/27/3
f 63/17/3 60/19/3 59/28/3
f 59/28/3 58/29/3 57/22/3
f 63/17/3 59/28/3 57/22/3
f 38/21/3 36/23/3 5/5/3
f 34/30/3 40/31/3 39/32/3
f 39/32/3 38/21/3 41/27/3
f 41/27/3 38/21/3 7/3/3
f 56/33/3 35/34/3 53/35/3
f 35/34/3 55/36/3 54/37/3
f 53/35/3 35/34/3 54/37/3
f 57/22/3 56/33/3 52/38/3
f 41/27/3 57/22/3 52/38/3
f 41/27/3 34/30/3 39/32/3
f 52/38/3 51/39/3 49/40/3
f 51/39/3 50/41/3 49/40/3
f 56/33/3 53/35/3 52/38/3
f 43/42/3 42/43/3 44/44/3
f 42/43/3 41/27/3 44/44/3
f 52/38/3 49/40/3 41/27/3
f 49/40/3 48/7/3 45/9/3
f 41/27/3 49/40/3 45/9/3
f 45/9/3 44/44/3 41/27/3
f 47/8/3 46/45/3 45/9/3
f 14/46/4 9/47/4 13/48/4
f 13/48/4 3/49/4 32/50/4
f 32/50/4 8/1/4 13/48/4
f 8/1/4 6/15/4 30/51/4
f 13/48/4 8/1/4 15/52/4
f 6/15/4 4/53/4 31/54/4
f 31/54/4 12/55/4 30/51/4
f 29/56/4 28/57/4 27/58/4
f 6/15/4 31/54/4 30/51/4
f 29/56/4 27/58/4 26/59/4
f 27/58/4 11/60/4 26/59/4
f 30/51/4 29/56/4 17/61/4
f 17/61/4 8/1/4 30/51/4
f 15/52/4 14/46/4 13/48/4
f 17/61/4 16/62/4 15/52/4
f 20/63/4 19/64/4 18/12/4
f 17/61/4 15/52/4 8/1/4
f 10/65/4 20/63/4 21/66/4
f 20/63/4 18/12/4 21/66/4
f 18/12/4 17/61/4 26/59/4
f 17/61/4 29/56/4 26/59/4
f 22/11/4 21/66/4 18/12/4
f 24/67/4 23/68/4 25/10/4
f 23/68/4 22/11/4 25/10/4
f 26/59/4 25/10/4 18/12/4
