# Blender v2.83.0 OBJ File: ''
# www.blender.org
mtllib Cuarto Fuera.mtl
o Cuarto_Fuera_Cube.004
v -10.244661 -5.007140 9.969901
v -10.244661 4.992860 9.969901
v -10.244661 -5.007140 -9.980099
v -10.244661 4.992860 -9.980099
v 9.755340 -5.007140 9.969901
v 9.755340 4.992860 9.969901
v 9.755340 -5.007140 -9.980099
v 9.755340 4.992860 -9.980099
v -10.244660 -4.907140 -9.780599
v -10.244660 -4.907140 9.770402
v -10.244660 4.892860 9.770402
v -10.244660 4.892860 -9.780599
v 9.755340 -4.907140 -9.780599
v 9.755340 4.892860 -9.780599
v 9.755340 -4.907140 9.770402
v 9.755340 4.892860 9.770402
v -10.244661 4.992860 8.742513
v -10.244661 4.992860 5.082389
v -10.244661 4.992860 -2.043940
v -10.244661 4.992860 -5.704062
v -8.544197 4.992860 -7.182653
v -7.211044 4.992860 -4.104274
v -7.550391 4.992860 -2.916551
v -9.392572 4.992860 -4.128513
v -9.538006 4.992860 -2.431768
v -8.132133 4.992860 0.670853
v -8.956262 4.992860 2.416076
v -9.586485 4.992860 1.398029
v -9.950073 4.992860 2.294881
v -9.028979 4.992860 3.046296
v -9.077461 4.992860 3.821952
v -9.319854 4.992860 6.536746
v -8.229084 4.992860 5.252065
v -8.423004 4.992860 4.500649
v -7.356472 4.992860 6.051959
v -8.689632 4.992860 6.851853
v -8.859304 4.992860 7.942618
v -9.756158 4.992860 7.191204
v -9.780395 4.992860 9.203058
v -10.244660 4.892860 8.746849
v -10.244660 4.892860 5.077300
v -10.244660 4.892860 -2.076638
v -10.244660 4.892860 -5.729352
v -9.758579 4.892860 9.235000
v -9.775410 4.892860 7.248731
v -8.849607 4.892860 7.955709
v -8.681278 4.892860 6.861575
v -7.351484 4.892860 6.053600
v -8.378284 4.892860 4.572314
v -8.243623 4.892860 5.262460
v -9.270422 4.892860 6.491254
v -9.085262 4.892860 3.848505
v -9.017935 4.892860 3.006865
v -9.893236 4.892860 2.316721
v -9.573414 4.892860 1.475081
v -8.950603 4.892860 2.417719
v -8.125793 4.892860 0.700773
v -9.539745 4.892860 -2.430124
v -9.405084 4.892860 -4.046071
v -7.553477 4.892860 -2.935109
v -7.183156 4.892860 -4.079737
v -8.529787 4.892860 -7.176972
v -10.244660 -4.907140 -7.938244
v -10.244660 -4.907140 -6.334682
v -10.244660 -4.907140 3.352411
v -9.129109 -4.907140 -8.897754
v -8.629637 -4.907140 -8.122259
v -7.472973 -4.907140 -6.952448
v -9.023957 -4.907140 -6.518699
v -8.471909 -4.907140 -7.215328
v -7.801571 -4.907140 -5.322599
v -8.616495 -4.907140 -4.941425
v -9.668016 -4.907140 -3.548165
v -9.194834 -4.907140 -3.074983
v -9.194834 -4.907140 -1.655437
v -9.510288 -4.907140 -2.444073
v -10.101767 -4.907140 -1.510852
v -9.299984 -4.907140 -0.735360
v -9.089680 -4.907140 1.025930
v -9.746878 -4.907140 0.355589
v -9.838886 -4.907140 1.209945
v -8.879375 -4.907140 2.195742
v -9.155397 -4.907140 3.036954
v -9.286842 -4.907140 2.406045
v -9.852030 -4.907140 1.932863
v -8.826799 -4.907140 3.970176
v -8.195887 -4.907140 6.112640
v -9.865168 -4.907140 7.164156
v -8.498192 -4.907140 7.335026
v -8.603345 -4.907140 8.531126
v -9.431412 -4.907140 8.531126
v -9.431411 -4.907140 9.043740
v -7.998722 -4.907140 9.162037
v -10.244661 -5.007140 -7.899659
v -10.244661 -5.007140 -6.317515
v -10.244661 -5.007140 3.357899
v -10.244661 -5.007140 9.770319
v -7.997427 -5.007140 9.184441
v -9.419832 -5.007140 9.047525
v -9.435043 -5.007140 8.537892
v -8.613548 -5.007140 8.553105
v -8.529873 -5.007140 7.381711
v -9.830578 -5.007140 7.161124
v -8.195190 -5.007140 6.096220
v -8.811316 -5.007140 3.966413
v -9.845791 -5.007140 1.943095
v -9.260094 -5.007140 2.452728
v -9.146002 -5.007140 3.007999
v -8.864560 -5.007140 2.201715
v -9.822971 -5.007140 1.228089
v -9.739302 -5.007140 0.376165
v -9.092751 -5.007140 1.015107
v -9.298124 -5.007140 -0.772410
v -10.081594 -5.007140 -1.495023
v -9.526320 -5.007140 -2.423011
v -9.191637 -5.007140 -1.639546
v -9.184031 -5.007140 -3.077167
v -9.670847 -5.007140 -3.541160
v -8.666792 -5.007140 -4.902716
v -7.814865 -5.007140 -5.313464
v -8.491838 -5.007140 -7.199864
v -8.978653 -5.007140 -6.500069
v -7.464967 -5.007140 -6.941245
v -8.621149 -5.007140 -8.112641
v -9.100359 -5.007140 -8.850467
vt 0.858895 0.655340
vt 0.848593 0.633470
vt 0.852229 0.681463
vt 0.136832 0.615383
vt 0.139399 0.637781
vt 0.138163 0.604516
vt 0.375000 0.750000
vt 0.375000 0.500000
vt 0.375000 0.500000
vt 0.625000 1.000000
vt 0.375000 1.000000
vt 0.625000 0.500000
vt 0.375000 0.250000
vt 0.625000 0.750000
vt 0.375000 0.750000
vt 0.625000 0.500000
vt 0.625000 0.750000
vt 0.625000 0.250000
vt 0.375000 0.250000
vt 0.875000 0.750000
vt 0.375000 1.000000
vt 0.875000 0.750000
vt 0.125000 0.749861
vt 0.153074 0.742221
vt 0.125565 0.750000
vt 0.875000 0.500000
vt 0.853744 0.535056
vt 0.853564 0.533293
vt 0.875000 0.551804
vt 0.875000 0.553584
vt 0.836731 0.572897
vt 0.837080 0.573632
vt 0.841360 0.587533
vt 0.841322 0.588516
vt 0.864505 0.573328
vt 0.864349 0.573328
vt 0.866189 0.593991
vt 0.866167 0.594591
vt 0.875000 0.598511
vt 0.875000 0.599451
vt 0.848514 0.634026
vt 0.858824 0.655981
vt 0.866609 0.643927
vt 0.866773 0.642583
vt 0.870607 0.654689
vt 0.871318 0.653822
vt 0.859666 0.663514
vt 0.859804 0.663238
vt 0.860507 0.674276
vt 0.860410 0.672958
vt 0.875000 0.689989
vt 0.862822 0.708069
vt 0.875000 0.688753
vt 0.863440 0.706978
vt 0.849805 0.690879
vt 0.849987 0.692357
vt 0.838835 0.702473
vt 0.851670 0.683532
vt 0.838898 0.700903
vt 0.855458 0.712805
vt 0.855562 0.710927
vt 0.857562 0.726795
vt 0.857683 0.724595
vt 0.869134 0.717755
vt 0.868894 0.715179
vt 0.875000 0.736912
vt 0.875000 0.734619
vt 0.868924 0.743154
vt 0.874435 0.750000
vt 0.869197 0.740390
vt 0.125000 0.500000
vt 0.138944 0.511289
vt 0.139304 0.514145
vt 0.125000 0.526071
vt 0.125000 0.523558
vt 0.145293 0.523412
vt 0.145188 0.521205
vt 0.159747 0.538078
vt 0.159646 0.536164
vt 0.140825 0.543608
vt 0.140259 0.541710
vt 0.146910 0.534839
vt 0.147159 0.532803
vt 0.125000 0.545897
vt 0.155371 0.558489
vt 0.125000 0.544063
vt 0.155539 0.557005
vt 0.145352 0.561879
vt 0.144724 0.563624
vt 0.132172 0.580700
vt 0.132208 0.579695
vt 0.138257 0.586512
vt 0.138123 0.603897
vt 0.133979 0.594700
vt 0.138123 0.585745
vt 0.134180 0.593813
vt 0.127038 0.606329
vt 0.126786 0.605746
vt 0.136808 0.615662
vt 0.139437 0.638184
vt 0.131317 0.629777
vt 0.131222 0.629612
vt 0.130271 0.640453
vt 0.130072 0.640537
vt 0.142251 0.652654
vt 0.142066 0.653142
vt 0.138733 0.662758
vt 0.138616 0.663899
vt 0.137307 0.655802
vt 0.136973 0.655831
vt 0.129986 0.649419
vt 0.129908 0.649781
vt 0.125000 0.667143
vt 0.125000 0.667933
vt 0.142917 0.674769
vt 0.142723 0.675832
vt 0.150618 0.701458
vt 0.150610 0.703228
vt 0.130176 0.714802
vt 0.129744 0.716674
vt 0.146435 0.717567
vt 0.146831 0.718858
vt 0.145389 0.732246
vt 0.145516 0.734153
vt 0.135120 0.732055
vt 0.135166 0.734153
vt 0.135310 0.738441
vt 0.135166 0.740708
vt 0.153090 0.740157
vt 0.125000 0.750000
vt 0.875000 0.500000
vt 0.625000 0.250000
vt 0.125000 0.500000
vn 0.0000 -1.0000 -0.0000
vn 0.0000 1.0000 0.0000
vn -1.0000 -0.0000 0.0000
vn 0.0000 0.0000 -1.0000
vn 0.0000 0.0000 1.0000
vn 1.0000 0.0000 -0.0000
vn 0.2615 -0.0008 0.9652
vn 0.8318 0.0887 -0.5479
vn 0.6391 0.1351 0.7571
vn 0.4630 0.2173 -0.8593
vn 0.9006 0.3226 0.2914
vn -0.5093 -0.1418 0.8488
vn 0.9950 -0.0561 0.0829
vn 0.4482 0.0069 0.8939
vn 0.7799 0.1946 -0.5949
vn 0.8861 0.1835 0.4257
vn -0.8337 -0.0381 0.5509
vn 0.8692 0.3681 0.3303
vn 0.6093 0.1775 -0.7728
vn 0.9937 0.0784 0.0795
vn 0.7217 0.1245 0.6809
vn 0.7039 0.5515 -0.4476
vn -0.7666 0.0449 -0.6406
vn 0.8212 -0.0407 -0.5692
vn 0.5188 0.0399 0.8539
vn 0.9837 0.0969 0.1513
vn -0.6063 0.0451 0.7940
vn 0.9542 -0.0118 0.2989
vn 0.7083 -0.0306 -0.7053
vn 0.5949 -0.7186 0.3602
vn 0.6963 -0.1333 -0.7053
vn 0.5606 0.4802 0.6747
vn -0.1215 -0.3573 -0.9260
vn 0.7117 -0.0072 -0.7025
vn 0.2775 0.1289 0.9520
vn -0.7406 -0.4315 -0.5152
vn 0.4491 0.0485 0.8922
vn 0.3793 -0.1341 -0.9155
vn 0.4307 0.1292 0.8932
vn 0.7928 -0.1724 0.5846
vn 0.6882 -0.0701 -0.7221
vn -0.9191 0.0330 0.3926
vn 0.9942 0.1073 0.0053
vn 0.8577 -0.0294 0.5132
vn 0.6778 0.0204 -0.7349
vn 0.9916 0.0607 -0.1139
vn -0.7018 -0.0553 0.7102
vn 0.9907 0.0951 0.0973
vn 0.7126 -0.0139 -0.7015
vn 0.9323 0.1576 0.3254
vn -0.9687 -0.1486 0.1990
vn -0.6464 0.1739 0.7429
vn 0.9588 0.0875 0.2703
vn 0.3903 -0.0504 -0.9193
vn 0.9487 0.1572 -0.2744
vn 0.5409 -0.1326 0.8306
vn 0.1666 0.0874 -0.9822
vn 0.9598 -0.2721 0.0686
vn -0.0181 0.2164 0.9761
vn 0.9988 -0.0383 -0.0298
vn 0.0958 -0.0266 -0.9950
vn 0.2464 0.2149 0.9450
vn 0.5934 -0.7196 -0.3607
vn 0.6445 -0.1875 0.7412
vn 0.4647 -0.0866 -0.8812
vn 0.9584 -0.0804 0.2738
vn -0.4381 0.6038 0.6659
vn 0.9962 -0.0159 0.0854
vn 0.4625 -0.2755 0.8427
vn 0.7822 -0.1325 -0.6087
vn 0.9027 0.0581 0.4263
vn -0.8156 0.2824 0.5049
vn 0.7916 0.5200 0.3209
vn 0.5918 0.3514 -0.7254
vn 0.9962 -0.0612 0.0623
vn 0.7333 -0.0345 0.6790
vn 0.8231 0.0289 -0.5671
vn -0.7597 -0.0821 -0.6451
vn 0.8236 0.0318 -0.5662
vn 0.5104 0.1253 0.8507
vn 0.9815 0.1152 0.1527
vn -0.5592 0.4916 0.6675
vn 0.9537 0.0130 0.3003
vn 0.7024 -0.0729 -0.7081
vn 0.6930 0.3521 0.6291
vn 0.3342 0.8426 -0.4223
vn 0.6259 0.2807 0.7276
vn -0.1126 -0.1046 -0.9881
vn 0.7109 -0.0218 -0.7029
vn 0.2579 0.2886 0.9221
vn -0.7823 0.0601 -0.6200
vn 0.4397 0.1520 0.8852
vn 0.3772 -0.1567 -0.9128
vn 0.4235 0.0264 0.9055
vn 0.7980 0.0196 0.6023
vn 0.7041 0.0915 -0.7041
vn -0.9054 0.2214 0.3622
vn 0.9995 0.0319 0.0000
vn 0.8184 0.2472 0.5187
vn 0.6696 0.2690 -0.6923
vn 0.9928 -0.0177 -0.1185
vn -0.7112 0.0896 0.6973
vn 0.9789 0.1749 0.1054
vn 0.7151 0.0644 -0.6960
vn 0.9502 -0.0010 0.3118
vn -0.9657 -0.1644 0.2012
vn -0.6415 0.0384 0.7662
vn 0.9637 0.0146 0.2665
vn 0.3976 0.0959 -0.9125
vn 0.9579 0.0530 -0.2821
vn 0.5264 0.1567 0.8357
vn 0.1108 -0.4490 -0.8866
vn 0.9928 -0.0821 0.0873
vn 0.0000 0.0675 0.9977
vn 0.9934 0.1150 -0.0000
vn 0.0803 -0.2169 -0.9729
usemtl Pared_Alta.001
s off
f 27/1/1 26/2/1 34/3/1
f 113/4/2 112/5/2 116/6/2
f 5/7/3 13/8/3 7/9/3
f 2/10/4 5/7/4 1/11/4
f 8/12/5 3/13/5 7/9/5
f 6/14/3 15/15/3 5/7/3
f 7/9/3 14/16/3 8/12/3
f 8/12/3 16/17/3 6/14/3
f 3/13/6 12/18/6 9/19/6
f 2/20/6 10/21/6 11/22/6
f 97/23/7 93/24/7 10/25/7
f 12/26/8 21/27/8 62/28/8
f 21/27/9 43/29/9 62/28/9
f 20/30/10 61/31/10 43/29/10
f 22/32/11 60/33/11 61/31/11
f 23/34/12 59/35/12 60/33/12
f 24/36/13 58/37/13 59/35/13
f 25/38/14 42/39/14 58/37/14
f 19/40/15 57/41/15 42/39/15
f 26/2/16 56/42/16 57/41/16
f 27/1/17 55/43/17 56/42/17
f 28/44/18 54/45/18 55/43/18
f 29/46/19 53/47/19 54/45/19
f 30/48/20 52/49/20 53/47/20
f 31/50/21 41/51/21 52/49/21
f 51/52/22 18/53/22 32/54/22
f 51/52/23 33/55/23 50/56/23
f 34/3/24 48/57/24 49/58/24
f 35/59/25 47/60/25 48/57/25
f 36/61/26 46/62/26 47/60/26
f 37/63/27 45/64/27 46/62/27
f 38/65/28 40/66/28 45/64/28
f 17/67/29 44/68/29 40/66/29
f 11/69/30 39/70/30 2/20/30
f 3/71/31 66/72/31 125/73/31
f 66/72/32 94/74/32 125/73/32
f 63/75/33 124/76/33 94/74/33
f 67/77/34 123/78/34 124/76/34
f 68/79/35 122/80/35 123/78/35
f 69/81/36 121/82/36 122/80/36
f 70/83/37 95/84/37 121/82/37
f 120/85/38 64/86/38 71/87/38
f 120/85/39 72/88/39 119/89/39
f 72/88/40 118/90/40 119/89/40
f 73/91/41 117/92/41 118/90/41
f 75/93/42 115/94/42 116/6/42
f 74/95/43 116/6/43 117/92/43
f 76/96/44 114/97/44 115/94/44
f 77/98/45 113/4/45 114/97/45
f 78/99/46 112/5/46 113/4/46
f 79/100/47 111/101/47 112/5/47
f 80/102/48 110/103/48 111/101/48
f 81/104/49 109/105/49 110/103/49
f 82/106/50 108/107/50 109/105/50
f 83/108/51 107/109/51 108/107/51
f 84/110/52 106/111/52 107/109/52
f 85/112/53 96/113/53 106/111/53
f 65/114/54 105/115/54 96/113/54
f 86/116/55 104/117/55 105/115/55
f 87/118/56 103/119/56 104/117/56
f 88/120/57 102/121/57 103/119/57
f 89/122/58 101/123/58 102/121/58
f 90/124/59 100/125/59 101/123/59
f 91/126/60 99/127/60 100/125/60
f 92/128/61 98/129/61 99/127/61
f 1/130/6 97/23/6 10/21/6
f 8/12/1 6/14/1 22/32/1
f 6/14/1 2/20/1 37/63/1
f 37/63/1 2/20/1 39/70/1
f 39/70/1 17/67/1 38/65/1
f 35/59/1 6/14/1 37/63/1
f 21/27/1 4/131/1 8/12/1
f 22/32/1 20/30/1 21/27/1
f 25/38/1 24/36/1 23/34/1
f 22/32/1 21/27/1 8/12/1
f 19/40/1 25/38/1 26/2/1
f 25/38/1 23/34/1 26/2/1
f 23/34/1 22/32/1 35/59/1
f 35/59/1 22/32/1 6/14/1
f 39/70/1 38/65/1 37/63/1
f 37/63/1 36/61/1 35/59/1
f 34/3/1 33/55/1 32/54/1
f 34/3/1 32/54/1 31/50/1
f 32/54/1 18/53/1 31/50/1
f 35/59/1 34/3/1 26/2/1
f 23/34/1 35/59/1 26/2/1
f 34/3/1 31/50/1 30/48/1
f 30/48/1 29/46/1 27/1/1
f 29/46/1 28/44/1 27/1/1
f 30/48/1 27/1/1 34/3/1
f 97/23/2 1/130/2 98/129/2
f 1/130/2 5/7/2 98/129/2
f 7/9/2 3/71/2 125/73/2
f 125/73/2 94/74/2 124/76/2
f 125/73/2 124/76/2 123/78/2
f 5/7/2 7/9/2 123/78/2
f 7/9/2 125/73/2 123/78/2
f 100/125/2 99/127/2 101/123/2
f 99/127/2 98/129/2 101/123/2
f 122/80/2 121/82/2 95/84/2
f 5/7/2 123/78/2 120/85/2
f 123/78/2 122/80/2 120/85/2
f 101/123/2 98/129/2 102/121/2
f 98/129/2 5/7/2 104/117/2
f 102/121/2 98/129/2 104/117/2
f 104/117/2 103/119/2 102/121/2
f 122/80/2 95/84/2 120/85/2
f 120/85/2 119/89/2 117/92/2
f 119/89/2 118/90/2 117/92/2
f 106/111/2 96/113/2 107/109/2
f 96/113/2 105/115/2 108/107/2
f 105/115/2 104/117/2 109/105/2
f 104/117/2 5/7/2 120/85/2
f 109/105/2 104/117/2 120/85/2
f 120/85/2 117/92/2 116/6/2
f 116/6/2 115/94/2 114/97/2
f 120/85/2 116/6/2 112/5/2
f 109/105/2 120/85/2 112/5/2
f 108/107/2 107/109/2 96/113/2
f 111/101/2 110/103/2 112/5/2
f 110/103/2 109/105/2 112/5/2
f 109/105/2 108/107/2 105/115/2
f 116/6/2 114/97/2 113/4/2
f 5/7/3 15/15/3 13/8/3
f 2/10/4 6/14/4 5/7/4
f 8/12/5 4/132/5 3/13/5
f 6/14/3 16/17/3 15/15/3
f 7/9/3 13/8/3 14/16/3
f 8/12/3 14/16/3 16/17/3
f 3/13/6 4/131/6 12/18/6
f 2/20/6 1/130/6 10/21/6
f 97/23/62 98/129/62 93/24/62
f 12/26/63 4/131/63 21/27/63
f 21/27/64 20/30/64 43/29/64
f 20/30/65 22/32/65 61/31/65
f 22/32/66 23/34/66 60/33/66
f 23/34/67 24/36/67 59/35/67
f 24/36/68 25/38/68 58/37/68
f 25/38/69 19/40/69 42/39/69
f 19/40/70 26/2/70 57/41/70
f 26/2/71 27/1/71 56/42/71
f 27/1/72 28/44/72 55/43/72
f 28/44/73 29/46/73 54/45/73
f 29/46/74 30/48/74 53/47/74
f 30/48/75 31/50/75 52/49/75
f 31/50/76 18/53/76 41/51/76
f 51/52/77 41/51/77 18/53/77
f 51/52/78 32/54/78 33/55/78
f 34/3/79 35/59/79 48/57/79
f 35/59/80 36/61/80 47/60/80
f 36/61/81 37/63/81 46/62/81
f 37/63/82 38/65/82 45/64/82
f 38/65/83 17/67/83 40/66/83
f 17/67/84 39/70/84 44/68/84
f 11/69/85 44/68/85 39/70/85
f 3/71/86 9/133/86 66/72/86
f 66/72/87 63/75/87 94/74/87
f 63/75/88 67/77/88 124/76/88
f 67/77/89 68/79/89 123/78/89
f 68/79/90 69/81/90 122/80/90
f 69/81/91 70/83/91 121/82/91
f 70/83/92 64/86/92 95/84/92
f 120/85/93 95/84/93 64/86/93
f 120/85/94 71/87/94 72/88/94
f 72/88/95 73/91/95 118/90/95
f 73/91/96 74/95/96 117/92/96
f 75/93/97 76/96/97 115/94/97
f 74/95/98 75/93/98 116/6/98
f 76/96/99 77/98/99 114/97/99
f 77/98/100 78/99/100 113/4/100
f 78/99/101 79/100/101 112/5/101
f 79/100/102 80/102/102 111/101/102
f 80/102/103 81/104/103 110/103/103
f 81/104/104 82/106/104 109/105/104
f 82/106/105 83/108/105 108/107/105
f 83/108/106 84/110/106 107/109/106
f 84/110/107 85/112/107 106/111/107
f 85/112/108 65/114/108 96/113/108
f 65/114/109 86/116/109 105/115/109
f 86/116/110 87/118/110 104/117/110
f 87/118/111 88/120/111 103/119/111
f 88/120/112 89/122/112 102/121/112
f 89/122/113 90/124/113 101/123/113
f 90/124/114 91/126/114 100/125/114
f 91/126/115 92/128/115 99/127/115
f 92/128/116 93/24/116 98/129/116
