# Blender v2.83.0 OBJ File: ''
# www.blender.org
mtllib Frente.mtl
o Plano_Plano.001
v -10.000000 0.000000 -0.000000
v 10.000000 0.000000 -0.000000
v -10.000000 10.000000 0.000000
v 10.000000 10.000000 0.000000
v 1.643577 0.000000 -0.000000
v 1.643577 10.000000 0.000000
v -1.700252 10.000000 0.000000
v -1.700252 0.000000 -0.000000
v -10.000000 7.651515 0.000000
v 10.000000 7.651515 0.000000
v 1.643577 7.651515 0.000000
v -1.700252 7.651515 0.000000
vt 0.609572 0.765152
vt 1.000000 1.000000
vt 0.609572 1.000000
vt 0.386650 0.765152
vt 0.386650 1.000000
vt 0.000000 0.765152
vt 0.000000 1.000000
vt 0.000000 0.000000
vt 0.609572 0.000000
vt 1.000000 0.765152
vt 0.386650 0.000000
vt 1.000000 0.000000
vn 0.0000 -0.0000 1.0000
usemtl None
s off
f 11/1/1 4/2/1 6/3/1
f 12/4/1 6/3/1 7/5/1
f 9/6/1 7/5/1 3/7/1
f 1/8/1 12/4/1 9/6/1
f 5/9/1 10/10/1 11/1/1
f 11/1/1 10/10/1 4/2/1
f 12/4/1 11/1/1 6/3/1
f 9/6/1 12/4/1 7/5/1
f 1/8/1 8/11/1 12/4/1
f 5/9/1 2/12/1 10/10/1
