# Blender v2.83.0 OBJ File: ''
# www.blender.org
mtllib Marco.mtl
o Marco_Cube.002
v 0.250000 4.000000 -2.000000
v 0.250000 -4.000000 -2.000000
v 0.250000 4.000000 2.000000
v 0.250000 -4.000000 2.000000
v -0.250000 4.000000 -2.000000
v -0.250000 -4.000000 -2.000000
v -0.250000 4.000000 2.000000
v -0.250000 -4.000000 2.000000
v -0.250000 -4.000000 1.700000
v 0.250000 4.000000 1.700000
v -0.250000 4.000000 1.700000
v 0.250000 -4.000000 1.700000
v -0.250000 4.000000 -1.700000
v 0.250000 -4.000000 -1.700000
v -0.250000 -4.000000 -1.700000
v 0.250000 4.000000 -1.700000
v 0.250000 3.700000 1.700000
v -0.250000 3.700000 1.700000
v 0.250000 3.700000 -1.700000
v -0.250000 3.700000 -1.700000
v 0.275000 3.967400 1.730000
v 0.275000 3.967400 1.955000
v 0.275000 -3.952600 1.955000
v 0.275000 -3.952600 1.730000
v 0.275000 3.962500 -1.657500
v 0.275000 3.962500 1.657500
v 0.275000 3.737500 1.657500
v 0.275000 3.737500 -1.657500
v 0.275000 -3.952600 -1.730000
v 0.275000 -3.952600 -1.955000
v 0.275000 3.967400 -1.955000
v 0.275000 3.967400 -1.730000
v 0.250000 3.661500 1.657500
v 0.250000 -3.961500 1.657500
v -0.250000 -3.961500 1.657500
v -0.250000 3.661500 1.657500
v 0.250000 -3.961500 -1.657500
v -0.250000 -3.961500 -1.657500
v 0.250000 3.661500 -1.657500
v -0.250000 3.661500 -1.657500
v 0.225000 3.623385 1.616063
v 0.225000 -3.923385 1.616063
v -0.225000 -3.923385 1.616063
v -0.225000 3.623385 1.616063
v 0.225000 -3.923385 -1.616063
v -0.225000 -3.923385 -1.616063
v 0.225000 3.623385 -1.616063
v -0.225000 3.623385 -1.616063
vt 0.625000 0.731250
vt 0.875000 0.750000
vt 0.625000 0.750000
vt 0.615625 0.018750
vt 0.375000 0.018750
vt 0.375000 0.000000
vt 0.375000 0.250000
vt 0.625000 0.500000
vt 0.375000 0.500000
vt 0.125000 0.731250
vt 0.375000 0.750000
vt 0.125000 0.750000
vt 0.625000 0.500000
vt 0.375000 0.500000
vt 0.615625 0.731250
vt 0.615625 0.517344
vt 0.615625 0.731250
vt 0.625000 0.517344
vt 0.875000 0.731250
vt 0.875000 0.517344
vt 0.125000 0.500000
vt 0.375000 0.517344
vt 0.125000 0.517344
vt 0.625000 1.000000
vt 0.375000 1.000000
vt 0.625000 0.232656
vt 0.615625 0.232656
vt 0.375000 0.731250
vt 0.125000 0.731250
vt 0.375000 0.731250
vt 0.000000 0.000000
vt 0.000000 0.000000
vt 0.000000 0.000000
vt 0.615625 0.517344
vt 0.615625 0.731250
vt 0.615625 0.517344
vt 0.625000 0.750000
vt 0.625000 0.731250
vt 0.625000 0.250000
vt 0.375000 0.731250
vt 0.375000 0.750000
vt 0.625000 0.517344
vt 0.000000 0.000000
vt 0.000000 0.000000
vt 0.625000 0.731250
vt 0.625000 0.517344
vt 0.375000 0.517344
vt 0.000000 0.000000
vt 0.125000 0.517344
vt 0.375000 0.517344
vt 0.125000 0.517344
vt 0.615625 0.232656
vt 0.375000 0.232656
vt 0.615625 0.232656
vt 0.615625 0.731250
vt 0.615625 0.517344
vt 0.375000 0.232656
vt 0.615625 0.018750
vt 0.375000 0.517344
vt 0.375000 0.018750
vt 0.000000 0.000000
vt 0.615625 0.018750
vt 0.000000 0.000000
vt 0.000000 0.000000
vt 0.000000 0.000000
vt 0.000000 0.000000
vt 0.000000 0.000000
vt 0.000000 0.000000
vt 0.125000 0.731250
vt 0.375000 0.731250
vt 0.000000 0.000000
vt 0.375000 0.018750
vt 0.625000 0.000000
vt 0.625000 0.018750
vt 0.875000 0.500000
vt 0.375000 0.232656
vt 0.000000 0.000000
vt 0.000000 0.000000
vn 0.0000 1.0000 0.0000
vn -1.0000 0.0000 0.0000
vn 0.0000 0.0000 -1.0000
vn 0.0000 -1.0000 0.0000
vn 0.8742 0.0000 -0.4856
vn 0.8321 -0.5547 0.0000
vn 0.0000 0.0000 1.0000
vn 0.0000 -0.7411 -0.6714
vn 1.0000 0.0000 0.0000
vn 0.7935 0.6085 0.0000
vn 0.8845 -0.4665 0.0000
vn 0.7682 0.0000 0.6402
vn 0.8742 0.0000 0.4856
vn 0.8320 0.5547 0.0000
vn 0.8619 0.0000 -0.5070
vn 0.8619 0.0000 0.5070
vn 0.7682 0.0000 -0.6402
vn 0.0000 -0.7360 0.6770
vn -0.8562 0.0000 0.5166
vn 0.8362 -0.5485 0.0000
vn 0.0000 -0.7411 0.6714
vn 0.0000 -0.7360 -0.6770
vn -0.8362 -0.5485 0.0000
vn 0.8562 0.0000 0.5166
vn -0.8562 0.0000 -0.5166
vn 0.8562 0.0000 -0.5166
usemtl Puerta.001
s off
f 10/1/1 7/2/1 3/3/1
f 18/4/2 9/5/2 8/6/2
f 6/7/3 1/8/3 2/9/3
f 9/10/4 4/11/4 8/12/4
f 2/9/5 31/13/5 30/14/5
f 17/15/6 28/16/6 27/17/6
f 16/18/1 11/19/1 10/1/1
f 1/8/1 13/20/1 16/18/1
f 6/21/4 14/22/4 15/23/4
f 4/11/7 7/24/7 8/25/7
f 18/4/2 13/26/2 20/27/2
f 12/28/8 35/29/8 34/30/8
f 14/31/9 39/32/9 37/33/9
f 19/34/9 33/35/9 39/36/9
f 10/1/10 22/37/10 21/38/10
f 6/7/2 20/27/2 5/39/2
f 24/40/9 22/37/9 23/41/9
f 4/11/11 24/40/11 23/41/11
f 32/42/12 19/43/12 29/44/12
f 3/3/13 23/41/13 22/37/13
f 28/16/9 26/45/9 27/17/9
f 16/18/14 26/45/14 25/46/14
f 19/34/15 25/46/15 28/16/15
f 10/1/16 27/17/16 26/45/16
f 30/14/9 32/42/9 29/47/9
f 14/22/11 30/14/11 29/47/11
f 1/8/10 32/42/10 31/13/10
f 24/48/17 17/15/17 21/38/17
f 38/49/18 45/50/18 46/51/18
f 40/52/19 46/53/19 48/54/19
f 39/36/20 41/55/20 47/56/20
f 20/27/2 38/57/2 40/52/2
f 18/4/2 40/52/2 36/58/2
f 15/23/21 37/59/21 38/49/21
f 9/5/2 36/58/2 35/60/2
f 17/15/9 34/61/9 33/35/9
f 44/62/4 47/56/4 41/55/4
f 45/63/7 48/64/7 46/65/7
f 44/66/3 42/67/3 43/68/3
f 34/30/22 43/69/22 42/70/22
f 36/58/23 48/54/23 44/62/23
f 37/33/24 47/71/24 45/63/24
f 35/60/25 44/62/25 43/72/25
f 33/35/26 42/67/26 41/55/26
f 10/1/1 11/19/1 7/2/1
f 8/6/2 7/73/2 18/4/2
f 7/73/2 11/74/2 18/4/2
f 6/7/3 5/39/3 1/8/3
f 9/10/4 12/28/4 4/11/4
f 2/9/5 1/8/5 31/13/5
f 17/15/6 19/34/6 28/16/6
f 16/18/1 13/20/1 11/19/1
f 1/8/1 5/75/1 13/20/1
f 6/21/4 2/9/4 14/22/4
f 4/11/7 3/3/7 7/24/7
f 18/4/2 11/74/2 13/26/2
f 12/28/8 9/10/8 35/29/8
f 14/31/9 19/43/9 39/32/9
f 19/34/9 17/15/9 33/35/9
f 10/1/10 3/3/10 22/37/10
f 15/76/2 20/27/2 6/7/2
f 20/27/2 13/26/2 5/39/2
f 24/40/9 21/38/9 22/37/9
f 4/11/11 12/28/11 24/40/11
f 16/18/12 19/43/12 32/42/12
f 19/43/12 14/31/12 29/44/12
f 3/3/13 4/11/13 23/41/13
f 28/16/9 25/46/9 26/45/9
f 16/18/14 10/1/14 26/45/14
f 19/34/15 16/18/15 25/46/15
f 10/1/16 17/15/16 27/17/16
f 30/14/9 31/13/9 32/42/9
f 14/22/11 2/9/11 30/14/11
f 1/8/10 16/18/10 32/42/10
f 12/77/17 17/15/17 24/48/17
f 17/15/17 10/1/17 21/38/17
f 38/49/18 37/59/18 45/50/18
f 40/52/19 38/57/19 46/53/19
f 39/36/20 33/35/20 41/55/20
f 20/27/2 15/76/2 38/57/2
f 18/4/2 20/27/2 40/52/2
f 15/23/21 14/22/21 37/59/21
f 9/5/2 18/4/2 36/58/2
f 17/15/9 12/77/9 34/61/9
f 44/62/4 48/54/4 47/56/4
f 45/63/7 47/71/7 48/64/7
f 44/66/3 41/78/3 42/67/3
f 34/30/22 35/29/22 43/69/22
f 36/58/23 40/52/23 48/54/23
f 37/33/24 39/32/24 47/71/24
f 35/60/25 36/58/25 44/62/25
f 33/35/26 34/61/26 42/67/26
