# Blender v2.83.0 OBJ File: ''
# www.blender.org
mtllib PB.mtl
o Pared_baja_Cube.003
v -0.100000 -1.750000 4.000000
v -0.100000 1.750000 4.000000
v -0.100000 -1.750000 -4.000000
v -0.100000 1.750000 -4.000000
v 0.100000 -1.750000 4.000000
v 0.100000 1.750000 4.000000
v 0.100000 -1.750000 -4.000000
v 0.100000 1.750000 -4.000000
v 0.050000 -1.750000 -4.000000
v 0.050000 1.750000 -4.000000
v 0.050000 -1.750000 4.000000
v 0.050000 1.750000 4.000000
v -0.100000 1.800000 4.000000
v -0.100000 1.800000 -4.000000
v 0.050000 1.800000 4.000000
v 0.050000 1.800000 -4.000000
v 0.000000 -1.750000 -4.000000
v 0.000000 1.750000 4.000000
v 0.000000 1.750000 -4.000000
v 0.000000 -1.750000 4.000000
v 0.000000 1.800000 4.000000
v 0.000000 1.800000 -4.000000
v -0.100000 1.850000 4.000000
v -0.100000 1.850000 -4.000000
v 0.000000 1.850000 4.000000
v 0.000000 1.850000 -4.000000
v -0.050000 -1.750000 -4.000000
v -0.050000 1.750000 4.000000
v -0.050000 1.800000 4.000000
v -0.050000 1.750000 -4.000000
v -0.050000 -1.750000 4.000000
v -0.050000 1.800000 -4.000000
v -0.050000 1.850000 4.000000
v -0.050000 1.850000 -4.000000
v -0.100000 1.900000 4.000000
v -0.100000 1.900000 -4.000000
v -0.050000 1.900000 4.000000
v -0.050000 1.900000 -4.000000
vt 0.375000 0.500000
vt 0.625000 0.750000
vt 0.375000 0.750000
vt 0.687500 0.750000
vt 0.687500 0.500000
vt 0.687500 0.750000
vt 0.625000 0.500000
vt 0.183594 0.500000
vt 0.242188 0.500000
vt 0.242188 0.750000
vt 0.757812 0.750000
vt 0.757812 0.500000
vt 0.757812 0.750000
vt 0.625000 0.882812
vt 0.625000 0.812500
vt 0.625000 0.882812
vt 0.625000 0.437500
vt 0.625000 0.367188
vt 0.625000 0.437500
vt 0.625000 1.000000
vt 0.625000 0.941406
vt 0.625000 0.941406
vt 0.816406 0.750000
vt 0.625000 0.000000
vt 0.625000 0.250000
vt 0.625000 0.250000
vt 0.625000 0.308594
vt 0.625000 0.308594
vt 0.625000 0.250000
vt 0.625000 0.941406
vt 0.816406 0.500000
vt 0.875000 0.750000
vt 0.816406 0.750000
vt 0.625000 0.367188
vt 0.625000 0.308594
vt 0.625000 0.812500
vt 0.375000 0.882812
vt 0.375000 0.367188
vt 0.687500 0.500000
vt 0.312500 0.500000
vt 0.312500 0.750000
vt 0.183594 0.750000
vt 0.125000 0.750000
vt 0.125000 0.500000
vt 0.757812 0.500000
vt 0.625000 0.941406
vt 0.625000 1.000000
vt 0.625000 1.000000
vt 0.625000 1.000000
vt 0.816406 0.500000
vt 0.375000 0.250000
vt 0.375000 0.000000
vt 0.625000 0.000000
vt 0.625000 0.000000
vt 0.625000 0.000000
vt 0.625000 0.250000
vt 0.625000 0.308594
vt 0.625000 0.882812
vt 0.875000 0.500000
vt 0.625000 0.367188
vt 0.375000 0.941406
vt 0.375000 1.000000
vt 0.375000 0.812500
vt 0.375000 0.437500
vt 0.375000 0.308594
vn 1.0000 0.0000 0.0000
vn 0.0000 1.0000 0.0000
vn 0.0000 -1.0000 0.0000
vn 0.0000 0.0000 1.0000
vn 0.0000 0.0000 -1.0000
vn -1.0000 0.0000 0.0000
usemtl Pared_baja
s off
f 7/1/1 6/2/1 5/3/1
f 12/4/1 16/5/1 15/6/1
f 8/7/2 12/4/2 6/2/2
f 27/8/3 17/9/3 20/10/3
f 21/11/1 26/12/1 25/13/1
f 18/14/4 15/15/4 21/16/4
f 10/17/5 22/18/5 16/19/5
f 16/5/2 21/11/2 15/6/2
f 13/20/4 28/21/4 29/22/4
f 26/12/2 33/23/2 25/13/2
f 23/24/6 36/25/6 24/26/6
f 34/27/5 32/28/5 14/29/5
f 21/16/4 33/30/4 29/22/4
f 38/31/2 35/32/2 37/33/2
f 22/18/5 19/34/5 30/35/5
f 33/23/1 38/31/1 37/33/1
f 12/36/4 18/14/4 20/37/4
f 30/35/5 19/34/5 17/38/5
f 7/1/1 8/7/1 6/2/1
f 12/4/1 10/39/1 16/5/1
f 8/7/2 10/39/2 12/4/2
f 17/9/3 9/40/3 20/10/3
f 9/40/3 7/1/3 11/41/3
f 20/10/3 9/40/3 11/41/3
f 7/1/3 5/3/3 11/41/3
f 20/10/3 31/42/3 27/8/3
f 31/42/3 1/43/3 3/44/3
f 3/44/3 27/8/3 31/42/3
f 21/11/1 22/45/1 26/12/1
f 18/14/4 12/36/4 15/15/4
f 10/17/5 19/34/5 22/18/5
f 16/5/2 22/45/2 21/11/2
f 29/22/4 33/30/4 13/20/4
f 33/30/4 37/46/4 23/47/4
f 13/20/4 33/30/4 23/47/4
f 37/46/4 35/48/4 23/47/4
f 13/20/4 2/49/4 28/21/4
f 26/12/2 34/50/2 33/23/2
f 3/51/6 1/52/6 2/53/6
f 13/54/6 23/24/6 24/26/6
f 23/24/6 35/55/6 36/25/6
f 3/51/6 2/53/6 4/56/6
f 2/53/6 13/54/6 4/56/6
f 24/26/6 14/29/6 13/54/6
f 14/29/6 4/56/6 13/54/6
f 32/28/5 30/35/5 4/56/5
f 14/29/5 24/26/5 34/27/5
f 24/26/5 36/25/5 34/27/5
f 32/28/5 4/56/5 14/29/5
f 36/25/5 38/57/5 34/27/5
f 29/22/4 28/21/4 18/14/4
f 21/16/4 25/58/4 33/30/4
f 29/22/4 18/14/4 21/16/4
f 38/31/2 36/59/2 35/32/2
f 30/35/5 32/28/5 22/18/5
f 32/28/5 34/27/5 22/18/5
f 34/27/5 26/60/5 22/18/5
f 33/23/1 34/50/1 38/31/1
f 18/14/4 28/21/4 20/37/4
f 28/21/4 2/49/4 31/61/4
f 20/37/4 28/21/4 31/61/4
f 2/49/4 1/62/4 31/61/4
f 20/37/4 11/63/4 12/36/4
f 11/63/4 5/3/4 6/2/4
f 6/2/4 12/36/4 11/63/4
f 19/34/5 10/17/5 17/38/5
f 10/17/5 8/7/5 9/64/5
f 17/38/5 10/17/5 9/64/5
f 8/7/5 7/1/5 9/64/5
f 17/38/5 27/65/5 30/35/5
f 27/65/5 3/51/5 4/56/5
f 4/56/5 30/35/5 27/65/5
